<svg xmlns="http://www.w3.org/2000/svg" viewBox="0 0 315.88 155.15"><defs><style>.cls-1{fill:#fff;}</style></defs><g id="Layer_2" data-name="Layer 2"><g id="Layer_1-2" data-name="Layer 1"><path d="M181.8,81.72c-3.86-.24-7.72-.41-11.56-.75-1.43-.12-2,.17-2,1.7a87.52,87.52,0,0,1-5,29.78c-.16.49-.66,1.15-.09,1.49.31.19,1-.2,1.49-.38,4.28-1.47,7.06.82,6.52,5.37a10.62,10.62,0,0,1-3.6,6.35c-.53.52-1.26,1.16-1.9.53-.83-.8.22-1.15.67-1.68a12.27,12.27,0,0,0,2.92-6.73c.3-2.88-1.59-4.14-4.15-2.83a9.59,9.59,0,0,0-4.31,4.45c-3.06,6.09-4.25,12.32-2,18.91.76,2.22,1.34,5.15,4.17,5.23s3.33-2.88,4.11-4.93c3.39-9,4.81-18.49,6.67-27.86.82-4.15,1.55-8.32,2.42-12.46.64-3,3.28-4.37,6.25-3.44,2.07.65,2,2.09,1.68,3.74-1.28,7-2.48,13.94-3.88,20.88-.37,1.88-.07,2.41,1.9,2.39,6.71-.11,6.74,0,8.05-6.65A70.1,70.1,0,0,1,194,101c1-2.29,2.1-4.54,4.19-6.06,1.8-1.3,3.8-2,6-.83s2.88,3.22,3.22,5.47c.07.44.09,1-.49,1.12s-.62-.52-.71-.91c-.49-2-.75-4.8-3.38-4.62-2.35.16-2.35,3-2.84,4.88-3.1,11.68-4.2,23.7-5.69,35.65-.19,1.46-.33,2.93-.49,4.39-.33,2.89-1.9,4-4.91,3.65-2.8-.35-3-2.11-2.64-4.41.76-4.81,1.33-9.66,2.08-14.47.26-1.66-.07-2.25-1.91-2.25-6.62,0-6.62-.08-8.63,6.33a37.8,37.8,0,0,1-5,11c-2.08,2.88-4.63,5.15-8.48,4.66-4-.53-5.83-3.57-7-7a45.52,45.52,0,0,1-1.05-5.12c-.08-.41.15-1-.42-1.14s-.67.52-.87.91a123.22,123.22,0,0,1-8,13.55c-2.06,2.94-4.28,5.77-6.45,8.62-.25.33-.76.81-1,.74-.75-.19-.39-.91-.32-1.38a129.41,129.41,0,0,1,3.35-15.92c.36-1.3.45-2.13-1.07-2.82-2.14-1-3.16-3-3.66-5.24-.11-.52-.26-1.35-.57-1.44-.57-.17-.77.61-1.09,1-3.5,4.64-5.81,4.57-8.78-.43-.93-1.56-1.23-.66-1.75.15a54.46,54.46,0,0,1-6.23,8.75c-1.77,1.87-3.55,3.85-6.64,2.72-3.25-1.18-4.4-3.72-4.57-6.87-.3-5.72,1.58-11.06,3-16.48.25-1,.81-1.86.6-2.91-1.09.55-1.25,1.73-1.69,2.66-2,4.16-3.89,8.34-5.79,12.53a4.71,4.71,0,0,1-2.46,2.82c-1.26.49-2.53.7-3.65-.22s-.6-2-.35-3.08c1-4.21,1.94-8.42,2.9-12.63.07-.35.12-1,0-1-.54-.2-.72.32-.94.69a138.92,138.92,0,0,0-6.87,13.21,5,5,0,0,1-3.29,3.07c-3.47,1-4.71,0-4.28-3.56.56-4.47,1-9,1.6-13.42.36-2.67,1.84-3.44,5-3.12,2.77.28,2.59,2,2.28,4-.41,2.54-.81,5.08-1.18,7.63,0,.37-.48.92.21,1.09.15,0,.48-.46.65-.76,1.73-3,3.4-6.11,5.18-9.11.93-1.57,1.9-3.43,4.19-2.89s2.67,2.56,3.12,4.46c.17.69.23,2,.43,2,1,.09,1.07-1,1.45-1.67,1-1.83,2-3.73,3-5.56,1.37-2.39,3.42-2.71,5.35-.73a8.67,8.67,0,0,1,2.08,8.69,158.86,158.86,0,0,0-3.7,17c-.11.78-.6,1.8.22,2.31,1,.63,1.77-.3,2.32-1,3.9-4.61,8-9.09,9.49-15.25a9.41,9.41,0,0,1,11.19-7,4.5,4.5,0,0,0,3.66-.51,5,5,0,0,1,3.2-.61c3.28.22,3.94,1.27,2.87,4.35-1.43,4.08-2.81,8.17-4.2,12.26-.19.57-.59,1.16-.09,1.78a14.23,14.23,0,0,0,.78-1.74,215.32,215.32,0,0,1,11.62-29.19,143.4,143.4,0,0,1,10.24-18.28c1.44-2.14,1.16-2.67-1.36-3.09-35.4-5.88-61.4-25.09-79-56.08A84.49,84.49,0,0,1,79.82,9.84c-.56-1.64-.29-2.23,1.52-2.51,41.92-6.4,83,26,86.52,68.39.1,1.26-.2,3.45.58,3.58,1.36.23,1.8-1.75,2.61-2.8,30.89-40.17,70.88-65.69,120.9-75A111.84,111.84,0,0,1,313.67,0c2.82,0,2.53.93,1.38,2.79A159.12,159.12,0,0,1,279.26,43c-22.07,17.88-46.66,30.68-74.7,36.32A124,124,0,0,1,181.8,81.72Z"/><path d="M33.62,129.72a95.64,95.64,0,0,1,1-12.08c.22-1.5,0-2.09-1.84-1.89-3.63.41-5.79,1.72-6.75,5.66a49.33,49.33,0,0,1-7.19,16c-1.93,2.86-4.21,5.36-7.51,6.67-3.58,1.41-6.5.47-8.64-2.69-4.59-6.79-3-20.4,3-25.93,2.73-2.52,5.71-3.17,7.67-1.68s2.34,5.21.56,8.37a12.85,12.85,0,0,1-2.82,3.37c-.5.43-1.16.8-1.68.14s.07-.94.49-1.35A11.48,11.48,0,0,0,13,117.73c.22-1.3.13-2.63-1.15-3.43s-2.32-.16-3.33.49c-5.23,3.37-7,8.57-7.35,14.39A20,20,0,0,0,3.9,141.1c1.84,2.94,4,3,6,.14a33.66,33.66,0,0,0,4.36-9.18c3-8.79,5.86-17.61,8.84-26.4a25.58,25.58,0,0,1,3.56-7.43,12.66,12.66,0,0,1,14.22-4.6c2.32.83,3.58,2.19,3.28,5C43,110,41.06,121.35,40.46,132.83c-.08,1.56-.13,3.12-.13,4.69,0,.63.06,1.37.78,1.61s1.19-.36,1.6-.84.73-1.06,1.12-1.56c.48-.82,1-2.11,1.65-1.58s-.14,1.67-.54,2.45a7.44,7.44,0,0,1-4.45,3.88,4.66,4.66,0,0,1-6.37-3.79A40.1,40.1,0,0,1,33.62,129.72Z"/><path d="M247.72,114.8c-1.53-.3-1.55,1.07-1.93,1.86-2,4.23-4,8.5-5.9,12.77a4.75,4.75,0,0,1-2.68,3,3.48,3.48,0,0,1-3.42-.25c-1.13-.85-.67-1.94-.41-3,.93-3.94,1.85-7.88,2.71-11.83.14-.64.61-1.35,0-2a10.49,10.49,0,0,0-1.11,1.47c-2.17,4.15-4.36,8.3-6.45,12.5a5.21,5.21,0,0,1-3.29,3.06c-3.54,1-4.77,0-4.32-3.61q.81-6.57,1.54-13.15c.15-1.34.38-2.64,1.87-3.06a6.16,6.16,0,0,1,5.07.37c1,.61.69,1.62.56,2.51-.39,2.63-.84,5.26-1.24,7.9-.08.49-.47,1.25.12,1.42s.74-.67,1-1.12c1.7-2.95,3.35-5.92,5.07-8.85.85-1.44,1.81-3,3.82-2.62s2.64,2.08,3.12,3.81c.26.93.49,1.87.74,2.8,1.1-.54,1.24-1.75,1.79-2.66.89-1.5,1.64-3.09,2.51-4.6,1.42-2.48,3.58-2.8,5.53-.69a8.79,8.79,0,0,1,1.92,8.74c-1.4,5.34-2.67,10.7-3.58,16.15-.17,1-.85,2.42.31,3s2-.69,2.67-1.51c3.84-4.87,8.12-9.41,9.27-16,.77-4.45,4.09-6.91,7.83-6.74,2,.1,3.7.72,4.36,2.74a3.66,3.66,0,0,1-1.86,4.51c-4.72,2.32-3.55,6.5-3.53,10.29,0,2.21,1.25,2.67,3.11,1.49a16.58,16.58,0,0,0,3.91-3.46c1.41-1.69,2.69-3.49,4-5.25.38-.49.69-1.47,1.33-1.14s.06,1.15-.24,1.64a30.16,30.16,0,0,1-6.83,8.25c-4.93,3.91-9.65,2.54-11.92-3.39-.27-.71-.09-1.94-1-2s-1.07,1.13-1.5,1.8c-2,3.09-3.91,6.25-6.59,8.81-1.56,1.5-3.22,2.74-5.65,1.88a6.37,6.37,0,0,1-4.43-5.16,14.72,14.72,0,0,1-.28-3.56,60.63,60.63,0,0,1,4-17.1Z"/><path d="M200.23,125.16c.17-4.47,1.17-8.58,5.19-11.24,2.62-1.73,4.67-1.5,6.69.86.92,1.09,1.32.38,2-.09,2.41-1.79,3.58-1.48,4,1.47.87,6.67-.69,12.83-5.22,17.88-3.38,3.76-8.27,2.94-10.77-1.48A14.79,14.79,0,0,1,200.23,125.16Z"/><path d="M82.7,119a24.65,24.65,0,0,1-4,13.24c-1.65,2.46-3.78,4.35-7,4s-5.07-2.69-6.1-5.62a16,16,0,0,1,.69-12.81,8.76,8.76,0,0,1,4.37-4.4c2.16-.94,4.34-1.2,5.81,1.19.55.88.92.83,1.7.32,3.1-2,4.22-1.39,4.5,2.42C82.73,117.93,82.7,118.49,82.7,119Z"/><path d="M47.66,133.39C48.38,128.78,49,123.85,50,119c.47-2.46,4.82-4.59,7.19-3.84A1.39,1.39,0,0,1,58.28,117c-.21.89-.46,1.78-.63,2.68-.08.48-.54,1.1.11,1.41.19.09.73-.43,1-.74a8.35,8.35,0,0,1,4.61-2.84c.59-.1,1.2,0,1.31.67s-.45.74-.9.84c-4.76,1.06-6.54,4.63-7.57,8.88-.54,2.23-1.1,4.47-1.84,6.64s-2.5,2.61-4.47,2.33C48.17,136.63,47.5,135.4,47.66,133.39Z"/><path class="cls-1" d="M181.82,79.93c-2.75-.13-5.51-.29-8.26-.4-2.15-.09-2.52-.73-1.18-2.57a144.4,144.4,0,0,1,27.49-28.54c21.35-16.85,45-28.8,72-33.62a103.43,103.43,0,0,1,18.68-1.52c2.38,0,2.68.59,1.41,2.6-9.25,14.59-21.22,26.57-35.13,36.64-18.36,13.28-38.41,22.76-61,26.32a60.8,60.8,0,0,1-6.3.75c-2.57.13-5.15.34-7.73.34C181.82,80,181.83,79.83,181.82,79.93Z"/><path class="cls-1" d="M104.49,16.53c29.8,0,57.16,24.42,61,54.6,1.18,9.17,1.56,8.44-6.87,6.29C127.48,69.48,106.56,50,95.12,20.05,94.32,18,94.76,17,97.07,17c.64,0,1.27-.15,1.92-.18Z"/><path class="cls-1" d="M166.58,89.46a79.72,79.72,0,0,1-11.85,37.26,18.05,18.05,0,0,1-6.68,6.45c-.46.25-1.16.57-1.52.39-.71-.36-.28-1.14-.13-1.72a178.74,178.74,0,0,1,17.79-42.95c.53-.9.93-2.62,1.93-2.34S166.34,88.5,166.58,89.46Z"/><path class="cls-1" d="M132,128.68a19.51,19.51,0,0,1,5-10.74c.65-.66,1.57-1.34,2.43-.81s.09,1.5-.18,2.19a50.85,50.85,0,0,1-4.76,10.16c-.4.6-.88,1.3-1.73,1.1S132,129.64,132,128.68Z"/><path class="cls-1" d="M144,142.87c.41-2.13.81-4.1,1.17-6.09a2.07,2.07,0,0,1,1.56-1.72,14.43,14.43,0,0,0,4.92-2.94c.26-.22.75-.56.89-.47.39.26.07.65-.1.95a78.69,78.69,0,0,1-7.15,10.75c-.27.34-.58.91-1,.63C144,143.82,144.08,143.17,144,142.87Z"/><path class="cls-1" d="M37.48,97.51c-.81,5.12-1.6,10.3-2.47,15.46-.2,1.19-5.74,2.86-6.5,2-.45-.5-.08-1.06.09-1.55q2.52-7.58,5.13-15.14a6.13,6.13,0,0,1,1.15-1.86c.51-.62,1.11-1.4,2-1S37.45,96.75,37.48,97.51Z"/><path class="cls-1" d="M271.65,121.18c-.86-.08-.79-.61-.67-1,.37-1.27.3-2.94,1.95-3.32.76-.17.9.77.82,1.43A4,4,0,0,1,271.65,121.18Z"/><path class="cls-1" d="M206.78,130.32a25.53,25.53,0,0,1,2.94-10.5c.24-.46.69-1.09,1.08-1.11.8,0,.49.79.55,1.25a7.27,7.27,0,0,0,3.17,5.24,1.74,1.74,0,0,1,.7,2.34,13.2,13.2,0,0,1-4.09,6.38c-.94.77-2,1.52-3.24,1s-1-1.84-1.11-2.91C206.74,131.5,206.78,131,206.78,130.32Z"/><path class="cls-1" d="M217.05,119.21a22.36,22.36,0,0,1-.26,2.72c-.16.82.06,2.11-1.06,2.21-.91.07-1.48-1-1.91-1.77a5.41,5.41,0,0,1,.13-5.72c.47-.76,1-1.71,2.09-1.43s.85,1.29.92,2.08c.06.63.09,1.28.09,1.91Z"/><path class="cls-1" d="M71.1,130.82a27.41,27.41,0,0,1,3.12-11.16c.26-.47.53-1.09,1.15-1,.21,0,.33.78.4,1.22a6.65,6.65,0,0,0,2.72,4.9c1.54,1,1.5,2,.91,3.45a14.21,14.21,0,0,1-3,4.87c-1.11,1.09-2.34,2.44-4,1.72S71.1,132.36,71.1,130.82Z"/><path class="cls-1" d="M81.56,119c-.12,1-.21,2-.38,2.94-.13.79,0,1.94-.83,2.16s-1.48-.85-2-1.56a4.87,4.87,0,0,1-.76-3.4c.19-1.78.74-4,2.66-3.87C82,115.37,81.56,117.44,81.56,119Z"/></g></g></svg>