<?xml version="1.0" encoding="utf-8"?>
<!-- Generator: Adobe Illustrator 26.0.1, SVG Export Plug-In . SVG Version: 6.00 Build 0)  -->
<svg version="1.1" id="svg135" xmlns="http://www.w3.org/2000/svg" xmlns:xlink="http://www.w3.org/1999/xlink" x="0px" y="0px"
	 viewBox="0 0 2622.3 1221.9" style="enable-background:new 0 0 2622.3 1221.9;" xml:space="preserve">
<style type="text/css">
	.st0{fill:#CACACA;}
	.st1{fill:url(#path512_00000060734703874520223250000005612017005927970223_);}
	.st2{fill:#FFFFFF;}
</style>
<path id="path3925" class="st0" d="M0,849.6c715.9-610.4,1152.3-588.5,1180.2-91C1048.4,356.1,689.6,326.1,0,849.6z"/>
<path id="path4953" class="st0" d="M1453.3,764.2c35.3-616,629.3-397.8,1169,79.4C2173.7,491.7,1610.6,218.3,1453.3,764.2z"/>
<linearGradient id="path512_00000017507836671732928020000010571443021695424175_" gradientUnits="userSpaceOnUse" x1="1169.4335" y1="338.115" x2="1743.6859" y2="338.115" gradientTransform="matrix(2.8346 0 0 -2.8346 -2430.196 1492.89)">
	<stop  offset="0" style="stop-color:#EB8C00"/>
	<stop  offset="1" style="stop-color:#B6B35A"/>
</linearGradient>
<path id="path512" style="fill:url(#path512_00000017507836671732928020000010571443021695424175_);" d="M1494.4,549.6
	c-11.3-321-289.6-543.3-609.7-497.9c108.6,300.7,340.4,468.4,606.4,502.8c-102.4,151.4-188.7,393.1-195.8,514.4
	c147.5-182.7,203.3-358,199.3-514c312.4,43.5,772.6-155,1018-554.2C2120.7-16,1697.9,254.4,1494.4,549.6z M2351.6,91.2
	c-136.2,239.8-499.3,487-837.5,450.4C1677.1,304.9,2045,72,2351.6,91.2z M1482.1,539.3c-272.1-39.5-445-251.5-491.2-420.5
	C1311.7,77.9,1475.8,341.9,1482.1,539.3z M1482.9,586c6.9,163.7-100.7,342.9-155.1,408.3C1372.7,781.7,1431.7,676.9,1482.9,586z"/>
<g id="g3036" transform="translate(-283.88033,-461.69433)">
	<path id="rect2082" class="st0" d="M795.6,1564.3c-0.8,0-1.6,0-2.4,0.1h-2.9v0h-11v92.2h11v-31.4h4.8v0c0.2,0,0.3,0,0.5,0
		c16.8,0,30.4-13.6,30.4-30.4C826.1,1577.9,812.4,1564.3,795.6,1564.3L795.6,1564.3z M790.3,1574.8h5.1v0c11,0.1,19.8,9.1,19.8,20
		c0,11-8.9,20-19.9,20v0h-4.9L790.3,1574.8z"/>
	<path id="rect2084" class="st0" d="M1145.9,1564.4v92.2h11v-0.1h29.5v0.1h11v-0.1h29.5v0.1h11v-92.2h-11v81.2h-29.5v-81.2h-11v81.2
		h-29.5v-81.2H1145.9z"/>
	<path id="rect2090" class="st0" d="M1244.9,1564.4v92.2h5.1v0.1h23.3v-0.2c0.1,0,0.1,0,0.2,0c16.7,0,30.3-13.6,30.3-30.3
		c0-16.7-13.6-30.3-30.3-30.3c-6.4,0-12.6,2-17.7,5.7v-37.3L1244.9,1564.4z M1273.2,1606.3c10.8,0,19.6,8.8,19.6,19.6c0,0,0,0,0,0
		c0,10.8-8.7,19.5-19.5,19.6v0h-1c-0.1,0-0.2,0-0.3,0h-16.2v-28.7C1259.3,1610.4,1265.9,1606.3,1273.2,1606.3L1273.2,1606.3z"/>
	<path id="rect2096" class="st0" d="M1616.9,1564.4v35.8l-27.4-35.7l-8.7,6.7l28.2,36.7l-28.7,42.8l9.1,6.1l27.6-41.1v41h11v-38.9
		l26.2,39l9.1-6.1l-28.7-42.8l28.2-36.7l-8.7-6.7l-26,33.9v-33.9H1616.9z"/>
	<path id="rect2098" class="st0" d="M1854.4,1564.4L1854.4,1564.4l-11,0v92.2h11v-60.9l20.9,55.8l2,5.2h7.8l2-5.2v0l20.9-55.8v60.9
		h11v-92.2h-11v0h0l-26.8,71.4L1854.4,1564.4z"/>
	<path id="rect2104" class="st0" d="M2311.4,1564.3v11h21v81.3h11v-81.3h22.3v-11H2311.4z"/>
	<path id="rect2106" class="st0" d="M2371.4,1564.4v92.2h0.4v0.1h40.2v-11h-29.6v-17.1h29.5v-11h-29.5v-42.2h29.5v-11h-29.5v-0.1
		L2371.4,1564.4z"/>
	<path id="path2890" class="st0" d="M875.7,1565.2c-23.9,0-43.3,20.5-43.3,45.8c0,25.3,19.4,45.8,43.3,45.8
		c23.9,0,43.3-20.5,43.3-45.8C919,1585.8,899.6,1565.2,875.7,1565.2z M875.3,1576.1c17.4,0,31.5,15.4,31.5,34.4
		c0,19-14.1,34.4-31.5,34.4c-17.4,0-31.5-15.4-31.5-34.4C843.8,1591.5,857.9,1576.1,875.3,1576.1
		C875.3,1576.1,875.3,1576.1,875.3,1576.1z"/>
	<path id="path2957" class="st0" d="M1097.7,1565.2c-23.9,0-43.3,20.5-43.3,45.8c0,25.3,19.4,45.8,43.3,45.8
		c23.9,0,43.3-20.5,43.3-45.8C1141,1585.8,1121.6,1565.2,1097.7,1565.2z M1097.3,1576.1c17.4,0,31.5,15.4,31.5,34.4
		c0,19-14.1,34.4-31.5,34.4c-17.4,0-31.5-15.4-31.5-34.4C1065.8,1591.5,1079.9,1576.1,1097.3,1576.1
		C1097.3,1576.1,1097.3,1576.1,1097.3,1576.1z"/>
	<path id="path2959" class="st0" d="M1795.2,1565.2c-23.9,0-43.3,20.5-43.3,45.8c0,25.3,19.4,45.8,43.3,45.8
		c23.9,0,43.3-20.5,43.3-45.8C1838.5,1585.8,1819.1,1565.2,1795.2,1565.2z M1794.8,1576.1c17.4,0,31.5,15.4,31.5,34.4
		c0,19-14.1,34.4-31.5,34.4c-17.4,0-31.5-15.4-31.5-34.4C1763.3,1591.5,1777.4,1576.1,1794.8,1576.1
		C1794.8,1576.1,1794.8,1576.1,1794.8,1576.1z"/>
	<path id="path2961" class="st0" d="M2126.7,1565.2c-23.9,0-43.3,20.5-43.3,45.8c0,25.3,19.4,45.8,43.3,45.8
		c23.9,0,43.3-20.5,43.3-45.8C2170,1585.8,2150.6,1565.2,2126.7,1565.2z M2126.3,1576.1c17.4,0,31.5,15.4,31.5,34.4
		c0,19-14.1,34.4-31.5,34.4c-17.4,0-31.5-15.4-31.5-34.4C2094.8,1591.5,2108.9,1576.1,2126.3,1576.1
		C2126.3,1576.1,2126.3,1576.1,2126.3,1576.1z"/>
	<path id="letter_K" class="st0" d="M1041.2,1564.3l-25.2,34.8l-1.6-2.3v-32.4h-11v51.9v18.7v21.6h11v-36.7l1.3-1.7l26.3,38.8
		l9.1-6.2l-28.6-42.1l27.5-38L1041.2,1564.3z"/>
	<path id="path3038" class="st0" d="M1503.3,1564.7l-25.2,34.8l-1.6-2.3v-32.4h-11v51.9v18.7v21.6h11v-36.7l1.3-1.7l26.3,38.8
		l9.1-6.2l-28.6-42.1l27.5-38L1503.3,1564.7z"/>
	<path id="path3040" class="st0" d="M965.1,1565.2c-23.9,0-43.3,20.5-43.3,45.8c0,25.3,19.4,45.8,43.3,45.8
		c13.4,0,26.1-6.6,34.3-17.8l-9.6-7.8c-6,8.6-15.2,13.6-25.1,13.6c-17.4,0-31.5-15.4-31.5-34.4c0-19,14.1-34.4,31.5-34.4
		c0,0,0,0,0,0c9.8,0,19,4.9,24.9,13.4l8.7-7.8C990.1,1571.3,978,1565.2,965.1,1565.2L965.1,1565.2z"/>
	<path id="rect339" class="st0" d="M1536,1564.4l-19.4,92.3l11.5-0.1l16.2-78.4l16.2,78.4l11.2,0l-19.1-92.2l0,0h0h-1.5l-13.7,0
		L1536,1564.4z M1544.5,1611.1l-7.2,13.7l6.9,14.6l7.2-13.7L1544.5,1611.1z"/>
	<path id="path1057" class="st0" d="M1989,1564.4l-19.4,92.3l11.5-0.1l16.2-78.4l16.2,78.4l11.2,0l-19.1-92.2l0,0h0h-1.5h-13.7
		L1989,1564.4z M1997.5,1611.1l-7.2,13.7l6.9,14.6l7.2-13.7L1997.5,1611.1z"/>
	<path id="path1222" class="st0" d="M2185.2,1564.2L2185.2,1564.2l-11,0v92.2h11v-60.9l20.9,55.8l2,5.2h7.8l2-5.2v0l20.9-55.8v60.9
		h11v-92.2h-11v0h0l-26.8,71.4L2185.2,1564.2z"/>
	<path id="path1224" class="st0" d="M2276.5,1564.7l-19.4,92.3l11.5-0.1l16.2-78.4l16.2,78.4l11.2,0l-19.1-92.2l0,0h0h-1.5H2278
		L2276.5,1564.7z M2285,1611.4l-7.2,13.7l6.9,14.6l7.2-13.7L2285,1611.4z"/>
	<path id="path3858" class="st0" d="M1370.7,1564.4c-0.8,0-1.6,0-2.4,0.1h-2.9v0h0v-0.1h-11v92.2h0v0.1h5.1v0h23.3v-0.2
		c0.1,0,0.1,0,0.2,0c16.7,0,30.3-13.6,30.3-30.3c0-9.9-4.9-19.2-13-24.8c0.5-2.2,0.7-4.4,0.7-6.6
		C1401.1,1578,1387.5,1564.4,1370.7,1564.4L1370.7,1564.4z M1365.4,1574.8h5.1v0c11,0.1,19.8,9.1,19.8,20c0,11-8.9,20-19.9,20v0
		h-4.9L1365.4,1574.8z M1396.1,1611.6c4,3.7,6.3,8.9,6.3,14.4c0,10.8-8.7,19.5-19.5,19.6v0h-1c-0.1,0-0.2,0-0.3,0h-16.1v-20.3h4.8v0
		c0.2,0,0.3,0,0.5,0C1380.9,1625.2,1390.5,1620.1,1396.1,1611.6L1396.1,1611.6z"/>
	<path id="path3897" class="st0" d="M2049.7,1564.3c-0.8,0-1.6,0-2.4,0.1h-2.9v0h-11v92.2h11v-31.4h4.8v0c0.2,0,0.3,0,0.5,0
		c16.8,0,30.4-13.6,30.4-30.4C2080.1,1577.9,2066.4,1564.3,2049.7,1564.3L2049.7,1564.3z M2044.3,1574.8h5.1v0
		c11,0.1,19.8,9.1,19.8,20c0,11-8.9,20-19.9,20v0h-4.9L2044.3,1574.8z"/>
	<path id="rect3903" class="st0" d="M1678.4,1564.3v10.3h6.2v38.2c0,0,0.2,4.2,0,12.4c-0.5,14.2-4.5,20.5-8.2,25.9
		c-5.8,0-7.5,0-7.5,0v10.3h0v22.3h10.3v-22.3h56.9v22.3h10.3v-32h0v-0.6h-9.4v-76.5h6.1v-10.3H1678.4z M1694.9,1574.6h31.7v76.5
		c0,0-30.8-0.1-37.2,0c2.6-5.1,5.1-11.8,5.6-26C1695.4,1610.9,1694.9,1574.6,1694.9,1574.6z"/>
</g>
<g id="text302" transform="translate(-283.88033,-461.69433)">
	<path id="path5177" class="st2" d="M868.1,1250.8l-48.7,9.5c-9,30.7-18.3,57.4-28,79.9c-9.4,22.6-19.3,41.6-29.6,56.9
		c-10.3,15.4-20.9,27.1-31.9,35.2c-11,8.3-22.2,13.4-33.6,15.1c-9.7,1.5-18.2,0.2-25.7-3.9c-7.5-3.9-13.8-9.9-19.1-17.8
		c-5.3-7.9-9.4-17.3-12.5-28.3c-2.9-10.7-4.5-22.3-4.9-34.5c-0.7-12.1,0-24.3,2-36.8c2-12.5,5.2-24.3,9.5-35.5
		c4.4-11.2,10.1-21.3,17.1-30.3c7.2-9,15.7-16,25.3-21.1c7.2-3.7,13.9-5.5,20.1-5.3s11.3,2,15.5,5.3c4.4,3.3,7.6,7.8,9.5,13.5
		c2.2,5.5,3,11.7,2.3,18.8c-0.4,6.8-2.5,13.9-6.3,21.4c-3.5,7.5-8.9,14.7-16.1,21.7c-3.9,4.8-7.6,7.6-10.9,8.2
		c-3.1,0.4-5.4-0.1-6.9-1.6c-1.3-1.5-1.5-3.5-0.7-5.9c1.1-2.6,3.8-4.5,8.2-5.6c8.1-12.1,13.5-23,16.1-32.9c2.9-9.9,3.5-17.9,2-24
		c-1.5-6.1-4.9-10-10.2-11.5c-5.3-1.5-11.7,0.1-19.4,4.9c-13.2,8.3-23.5,18.8-30.9,31.3c-7.2,12.3-12.4,25.4-15.5,39.5
		c-2.9,14-3.8,28.1-3,42.1c0.9,14,3.1,26.9,6.6,38.5c3.5,11.6,7.9,21.2,13.2,28.6c5.5,7.5,11.3,11.6,17.4,12.5
		c5.5,0.7,10.9-1.9,16.1-7.6c5.3-5.7,10.5-13.8,15.8-24.3c5.5-10.3,10.9-22.5,16.1-36.5c5.3-14,10.5-29,15.8-44.7
		c5.3-15.8,10.5-32,15.8-48.7c5.3-16.9,10.4-33.1,15.5-48.7c5.3-15.8,10.4-30.6,15.5-44.4c5-14,10.1-26.1,15.1-36.2
		c7-12.3,15.1-21.9,24.3-29c9.2-7.2,18.5-12.3,28-15.1c9.4-3.1,18.8-4.4,28-3.9c9.2,0.4,17.3,2,24.3,4.6c7,2.4,12.6,5.7,16.8,9.9
		c4.2,3.9,6.1,8.1,5.9,12.5c-1.3,16.2-3.4,35.2-6.3,56.9c-2.9,21.5-5.8,44.3-8.9,68.4c-2.9,24.1-5.5,48.7-7.9,73.7
		c-2.4,25-3.7,48.9-3.9,71.7c0,5.5,0.5,9.3,1.6,11.5c1.1,2.2,2.5,3.2,4.3,3c2-0.2,4.1-1.3,6.3-3.3c2.4-2,4.6-4.5,6.6-7.6
		c2.2-2.9,4.2-5.9,5.9-9.2c1.8-3.3,3.1-6.4,3.9-9.2c0.2-1.1,0.9-2,2-2.6c1.3-0.4,2.5-0.5,3.6-0.3c1.1,0.2,2,0.8,2.6,1.6
		c0.9,1.1,1.1,2.4,0.7,3.9c-4.4,13.8-10.7,24.2-19.1,31.3c-8.3,7-16.8,11-25.3,11.8c-8.6,0.9-16.3-1.1-23.4-5.9
		c-6.8-4.8-10.9-12.3-12.2-22.4c-1.1-7.9-2-16.8-2.6-26.6c-0.4-9.9-0.5-20.9-0.3-33.2c0.4-12.3,1.3-25.8,2.6-40.5
		C863.8,1284.6,865.7,1268.4,868.1,1250.8L868.1,1250.8z M859.6,1138.3c-4.4,12.7-8.4,24.5-12.2,35.2c-3.7,10.5-7.1,20.4-10.2,29.6
		c-2.9,9-5.6,17.4-8.2,25.3c-2.4,7.7-4.6,15.1-6.6,22.4l46.1-8.6c1.3-12.3,2.9-23.8,4.6-34.5c1.8-11,3.5-21.3,5.3-30.9
		s3.4-18.9,4.9-27.6c1.5-9,2.6-17.7,3.3-26c-0.2-4.6-1.4-7.2-3.6-7.9c-2.2-0.9-4.7-0.4-7.6,1.3s-5.8,4.6-8.9,8.6
		C863.6,1129.1,861.3,1133.5,859.6,1138.3L859.6,1138.3z"/>
	<path id="path5179" class="st2" d="M1067.5,1264c2.2,0.2,3.8,0.9,4.9,2c1.3,1.1,1.9,2.3,1.6,3.6c0,1.3-0.7,2.5-2,3.6
		c-1.3,1.1-3.4,1.9-6.3,2.3c-3.3,0.2-7.2,1.3-11.8,3.3c-4.6,1.8-9.1,4.5-13.5,8.2c-4.4,3.7-8.6,8.4-12.5,14.1
		c-3.7,5.5-6.6,11.8-8.6,19.1c-1.5,5.9-3.2,12-4.9,18.1c-1.8,5.9-3.4,11.6-4.9,17.1c-1.5,5.5-3,10.3-4.3,14.5
		c-1.1,4.2-1.8,7.3-2,9.5c-0.9,4.6-3.7,8.3-8.6,11.2c-4.8,3.1-10,4.7-15.5,4.9c-5.5,0.4-10.5-0.7-15.1-3.3c-4.6-2.4-7-6.7-7.2-12.8
		c-0.2-3.9,0.2-9.4,1.3-16.5c1.1-7,2.5-15.1,4.3-24.3c1.5-9.4,3.3-19.7,5.3-30.9c1.8-11.2,3.3-22.9,4.6-35.2
		c1.8-4.4,4.5-8.2,8.2-11.5c3.9-3.3,8.2-5.9,12.8-7.9c4.6-2.2,9.3-3.6,14.1-4.3c4.8-0.9,9-1.1,12.5-0.7c3.7,0.4,6.5,1.6,8.2,3.6
		c2,1.8,2.4,4.3,1.3,7.6c-2,5.7-3.6,12.2-4.9,19.4c-1.3,7-2.6,14-3.9,21.1c3.5-6.4,7.3-11.8,11.5-16.5c4.4-4.6,8.7-8.3,12.8-11.2
		c4.4-3.1,8.6-5.3,12.5-6.6C1061.6,1264.3,1064.9,1263.7,1067.5,1264L1067.5,1264z"/>
	<path id="path5181" class="st2" d="M1156.6,1248.2c0.7,3.5,1.9,4.8,3.6,3.9c2-0.9,4.2-2.5,6.6-4.9c2.4-2.4,4.9-4.8,7.6-7.2
		c2.9-2.4,5.7-3.5,8.6-3.3c4.4,0.7,7.8,3.7,10.2,9.2c2.4,5.3,3.8,12.1,4.3,20.4s-0.1,17.7-1.6,28c-1.3,10.3-3.6,20.6-6.9,30.9
		c-3.1,10.1-7.1,19.7-12.2,29c-4.8,9.2-10.5,17-17.1,23.4c-6.6,6.4-13.9,10.6-22,12.8c-7.9,2.4-16.6,1.9-26-1.6
		c-7.2-2.6-13.5-7.5-18.8-14.5c-5.3-7-9.4-15.1-12.5-24.3c-2.9-9.2-4.5-19.1-4.9-29.6c-0.4-10.7,0.5-21.2,3-31.3
		c2.4-10.1,6.3-19.4,11.5-28c5.3-8.8,12.2-15.8,20.7-21.1c4.8-3.1,9.8-5,14.8-5.9c5-1.1,9.8-1.2,14.1-0.3c4.4,0.7,8.1,2.3,11.2,4.9
		C1153.8,1241,1155.8,1244.2,1156.6,1248.2z M1127.7,1383.1c2.2,0.9,5.5,0.4,9.9-1.3c4.6-1.5,9.4-4.7,14.5-9.5
		c5.3-4.6,10.3-11.1,15.1-19.4c5-8.3,9.1-18.9,12.2-31.6c-5.9-2.6-11-6.1-15.1-10.5c-4.2-4.4-7.5-9.1-9.9-14.1
		c-2.2-5-3.6-10.2-4.3-15.5c-0.4-5.3-0.1-10,1-14.1c-3.7,1.8-7.3,5.7-10.9,11.8c-3.5,5.9-6.8,13.1-9.9,21.4
		c-2.9,8.1-5.3,16.8-7.2,26c-2,9-3.2,17.4-3.6,25.3c-0.4,8.1-0.1,15,1,20.7C1121.8,1378.1,1124.2,1381.7,1127.7,1383.1
		L1127.7,1383.1z M1182.3,1247.8c-2.6-0.7-6,1.1-10.2,5.3c-3.9,3.9-6.9,9.2-8.9,15.8c-1.8,6.6-1.5,13.8,0.7,21.7
		c2.2,7.9,8.2,15.4,18.1,22.4c0.9-1.5,1.8-4.2,2.6-7.9c1.1-3.7,2-7.9,2.6-12.5c0.7-4.6,1.1-9.4,1.3-14.5c0.2-5.3,0.1-10-0.3-14.1
		c-0.2-4.4-0.8-8-1.6-10.9C1185.7,1250,1184.3,1248.3,1182.3,1247.8L1182.3,1247.8z"/>
	<path id="path5183" class="st2" d="M1280,1239.9c-1.1,8.3-2.2,16-3.3,23c-0.9,6.8-1.9,13.6-3,20.4c-1.1,6.8-2.3,13.7-3.6,20.7
		c-1.1,7-2.4,14.8-3.9,23.4c4.6-8.8,8.8-16.8,12.5-24c3.7-7.2,7.5-14.4,11.2-21.4c3.7-7,7.8-14.1,12.2-21.4
		c4.6-7.5,10-15.7,16.1-24.7c5.5-5.9,11-8.9,16.5-8.9c5.5,0,10.3,2.3,14.5,6.9c4.4,4.6,7.7,11.2,9.9,19.7c2.2,8.6,2.7,18.2,1.6,29
		c3.3-5.9,6.4-11.6,9.2-17.1c2.9-5.5,5.7-10.9,8.6-16.1c2.9-5.5,5.8-11.1,8.9-16.8c3.3-5.9,6.8-12.2,10.5-18.8
		c3.7-3.7,8.4-5.3,14.1-4.6c5.9,0.7,11.5,3.4,16.8,8.2c5.3,4.8,9.5,11.6,12.8,20.4c3.5,8.8,4.7,19.3,3.6,31.6
		c-1.5,4.8-3.4,11.6-5.6,20.4c-2.2,8.6-4.5,18-6.9,28.3c-2.4,10.3-4.8,20.7-7.2,31.3c-2.2,10.7-4.1,20.5-5.6,29.3
		c-1.5,8.8-2.5,16-3,21.7c-0.4,5.7-0.1,8.7,1,8.9c3.7,0.7,8.3-1.4,13.8-6.3c5.7-4.6,12.2-11.5,19.4-20.7
		c7.2-9.2,15.1-20.5,23.7-33.9c8.8-13.2,18.1-28,28-44.4c1.8-2.4,3.6-3.3,5.6-2.6c2.2,0.7,2.9,2.4,2,5.3
		c-11.2,19.1-21.6,36.1-31.3,51c-9.4,15.1-18.3,27.7-26.6,37.8c-8.3,10.1-16.2,17.4-23.7,22c-7.5,4.6-14.7,5.9-21.7,3.9
		c-14.5-3.9-24.3-11.4-29.6-22.4c-5.3-10.7-7.5-24.6-6.6-41.5c1.1-16.7,4.6-36.1,10.5-58.2c5.9-22.2,12.8-46.6,20.7-73.4
		c0.4-1.3-0.2-0.3-2,3c-1.8,3.3-4.3,8.1-7.6,14.5c-3.1,6.4-6.7,13.9-10.9,22.7c-4.2,8.8-8.6,18.1-13.2,28
		c-4.4,9.7-8.9,19.5-13.5,29.6c-4.6,9.9-8.8,19.2-12.5,28c-2.2,5-5.8,8.9-10.9,11.5c-5,2.6-10.2,3.9-15.5,3.9c-5,0-9.3-1.3-12.8-3.9
		c-3.5-2.6-4.9-6.7-4.3-12.2c1.5-5,3.3-11.4,5.3-19.1c2-7.9,3.9-16.1,5.9-24.7c2-8.6,3.8-17.1,5.6-25.7c1.8-8.6,3.4-16.2,4.9-23
		c1.5-6.8,2.7-12.2,3.6-16.1c0.9-4.2,1.3-6,1.3-5.6c-10.7,17.5-21.2,35.9-31.3,54.9c-10.1,19.1-19.2,37.6-27.3,55.6
		c-2.6,6.8-7,11.5-13.2,14.1c-5.9,2.9-12,4.4-18.1,4.6c-5.9,0.2-11.1-0.5-15.5-2.3c-4.4-1.8-6.3-3.7-5.6-5.9
		c0.7-2.6,1.4-6.7,2.3-12.2c0.7-5.7,1.5-13.3,2.6-22.7c1.1-9.4,2.4-20.8,3.9-34.2c1.5-13.4,3.4-29.3,5.6-47.7c0.4-3.1,2-5.6,4.6-7.6
		c2.9-2,6.1-3.4,9.9-4.3c3.9-0.9,8-1.2,12.2-1c4.4,0,8.3,0.4,11.8,1.3c3.7,0.9,6.7,2.2,8.9,3.9
		C1279.1,1235.5,1280.2,1237.5,1280,1239.9L1280,1239.9z"/>
	<path id="path5185" class="st2" d="M1592.6,1253.4c5.3-5.5,11.3-8.9,18.1-10.2c6.8-1.3,13.2-1.3,19.1,0c5.9,1.1,10.7,3.1,14.5,5.9
		c3.9,2.6,5.5,5.2,4.6,7.6c-7,18.6-12.8,34.5-17.4,47.7c-4.6,13.2-8.4,24.1-11.5,32.9c-2.9,8.8-4.9,15.7-6.3,20.7
		c-1.3,5.3-2.2,9.2-2.6,11.8c-0.2,2.6-0.1,4.4,0.3,5.3c0.7,0.9,1.4,1.4,2.3,1.6c2.2,0.7,6.4,0.4,12.5-0.7c6.4-0.9,13.6-3.8,21.7-8.9
		c8.3-4.8,17.1-12.2,26.3-22c9.2-10.1,18-23.8,26.3-41.1c0.7-1.3,1.4-2.3,2.3-3c1.1-0.7,2.1-1,3-1c0.9,0,1.5,0.3,2,1
		c0.7,0.7,0.7,1.6,0,3c-5.7,13.6-12.4,25.7-20.1,36.2c-7.5,10.5-15.5,19.3-24,26.3c-8.6,7-17.4,12.2-26.6,15.5
		c-9.2,3.5-18.3,5-27.3,4.6c-3.9-0.2-8.3-1.8-13.2-4.6c-4.6-2.9-8.9-6.9-12.8-12.2c-3.9-5.3-7-11.7-9.2-19.4c-2-7.5-2.3-15.8-1-25
		c-2.2,5-4.8,10.2-7.9,15.5c-3.1,5-6.4,9.5-9.9,13.5c-3.3,4.2-6.8,7.5-10.5,9.9c-3.5,2.4-6.8,3.4-9.9,3
		c-10.5-1.1-18.8-5.5-24.7-13.2c-5.9-7.5-9.5-16.2-10.9-26.3c-1.5-10.3-0.7-20.9,2.6-31.9c3.3-11,8.8-20.4,16.5-28.3
		c7.9-8.1,18-13.8,30.3-17.1C1561.4,1247.2,1575.9,1248.2,1592.6,1253.4L1592.6,1253.4z M1539.9,1354.1c2.4,0.4,5-0.9,7.9-3.9
		c2.9-2.9,5.8-6.9,8.9-12.2s6.1-11.2,9.2-17.8c3.1-6.8,6-13.7,8.9-20.7c3.1-7,5.8-13.8,8.2-20.4c2.6-6.6,4.9-12.3,6.9-17.1
		c-5.3-2.4-10.5-1.9-15.8,1.6c-5.3,3.3-10.2,8.3-14.8,15.1c-4.6,6.6-8.8,14.1-12.5,22.7c-3.7,8.3-6.6,16.3-8.6,24
		c-2,7.7-3,14.3-3,19.7C1535.5,1350.7,1537.1,1353.7,1539.9,1354.1L1539.9,1354.1z"/>
	<path id="path5187" class="st2" d="M1891.6,1124.1c-4.6,24.6-9.3,51.4-14.1,80.6c-4.8,29.2-10.5,58-17.1,86.5l61.5-1.6
		c4.2-22.4,8.4-44.1,12.8-65.1c4.4-21.3,9.5-40.4,15.5-57.2c5.9-17.1,13.1-31.3,21.4-42.4c8.6-11.4,19.1-18.3,31.6-20.7
		c4.2-0.9,8.7-0.8,13.5,0.3c4.8,0.9,9.2,3,13.2,6.3c4.2,3.3,7.8,8.1,10.9,14.5c3.1,6.1,4.9,14,5.6,23.7c0,1.8-0.4,3.1-1.3,3.9
		c-0.9,0.9-1.9,1.4-3,1.6c-1.1,0.2-2.1,0.1-3-0.3s-1.3-1.2-1.3-2.3c-0.2-6.8-1.2-12.7-3-17.8c-1.5-5-3.5-9.2-5.9-12.5
		c-2.4-3.3-5-5.6-7.9-6.9c-2.6-1.5-5.2-2.2-7.6-2c-3.7,0.4-7.3,5-10.9,13.8c-3.5,8.8-7,20.3-10.5,34.5c-3.5,14-6.9,30.2-10.2,48.4
		c-3.1,18-6,36.5-8.9,55.6c-2.6,19.1-5.2,37.8-7.6,56.3c-2.2,18.4-4.2,35.1-5.9,50c-1.8,14.9-3.2,27.3-4.3,37.2
		c-0.9,9.9-1.4,15.7-1.6,17.4c-0.4,3.7-2.1,6.8-4.9,9.2c-2.6,2.4-5.9,4.2-9.9,5.3c-3.9,1.3-8.2,1.9-12.8,1.6c-4.4,0-8.4-0.7-12.2-2
		c-3.7-1.3-6.8-3.3-9.2-5.9c-2.2-2.4-3.1-5.5-2.6-9.2c1.8-15.1,4.2-33.3,7.2-54.6c3.1-21.1,6.5-44.9,10.2-71.4l-61.2,2
		c-4.8,19.5-10.3,38.1-16.5,55.6c-5.9,17.5-12.7,32.9-20.4,46.1c-7.5,13.4-15.9,24-25.3,31.9c-9.4,8.1-20.1,12.5-31.9,13.2
		c-13.2,0.7-24.2-3.1-33.2-11.2c-9-8.1-16-18.8-21.1-31.9c-4.8-13.2-7.7-28-8.6-44.4c-0.7-16.2,0.9-32.1,4.6-47.7
		c3.7-15.8,9.8-30.2,18.1-43.1c8.3-13.2,19-23.1,31.9-29.9c7.2-3.7,13.9-5.5,20.1-5.3c6.1,0.2,11.3,2,15.5,5.3
		c4.4,3.3,7.6,7.8,9.5,13.5c2.2,5.5,3,11.7,2.3,18.8c-0.4,6.8-2.5,13.9-6.3,21.4c-3.5,7.5-8.9,14.7-16.1,21.7
		c-3.9,4.8-7.6,7.6-10.9,8.2c-3.1,0.4-5.4-0.1-6.9-1.6c-1.3-1.5-1.5-3.5-0.7-5.9c1.1-2.6,3.8-4.5,8.2-5.6
		c8.1-12.1,13.6-22.9,16.5-32.6c2.9-9.9,3.5-17.9,2-24c-1.5-6.1-4.9-10-10.2-11.5c-5.3-1.5-11.8,0-19.7,4.6
		c-12.3,7-21.9,16.6-29,28.6c-7,11.8-12.1,24.8-15.1,38.8c-2.9,14-3.9,28.3-3.3,42.8c0.7,14.5,2.5,27.6,5.6,39.5
		c3.3,11.8,7.5,21.7,12.5,29.6c5.3,7.9,11,12.3,17.1,13.2c5,0.7,10-2.3,14.8-8.9c5-6.6,9.8-15.8,14.1-27.6
		c4.6-11.6,9-25.3,13.2-41.1c4.2-15.6,8.1-32.1,11.8-49.7c3.9-17.5,7.7-35.4,11.2-53.6c3.5-18.4,6.8-36.1,9.9-53
		c3.3-16.9,6.3-32.5,8.9-46.7c2.9-14.5,5.5-26.5,7.9-36.2c1.1-4.4,4.5-7.8,10.2-10.2c5.7-2.4,11.7-3.6,18.1-3.6
		c6.4-0.2,12.1,1,17.1,3.6C1889.3,1114.3,1891.9,1118.4,1891.6,1124.1L1891.6,1124.1z"/>
	<path id="path5189" class="st2" d="M2081.8,1248.2c0.7,3.5,1.9,4.8,3.6,3.9c2-0.9,4.2-2.5,6.6-4.9c2.4-2.4,4.9-4.8,7.6-7.2
		c2.9-2.4,5.7-3.5,8.6-3.3c4.4,0.7,7.8,3.7,10.2,9.2c2.4,5.3,3.8,12.1,4.3,20.4c0.4,8.3-0.1,17.7-1.6,28
		c-1.3,10.3-3.6,20.6-6.9,30.9c-3.1,10.1-7.1,19.7-12.2,29c-4.8,9.2-10.5,17-17.1,23.4c-6.6,6.4-13.9,10.6-22,12.8
		c-7.9,2.4-16.6,1.9-26-1.6c-7.2-2.6-13.5-7.5-18.8-14.5c-5.3-7-9.4-15.1-12.5-24.3c-2.9-9.2-4.5-19.1-4.9-29.6
		c-0.4-10.7,0.5-21.2,3-31.3c2.4-10.1,6.3-19.4,11.5-28c5.3-8.8,12.2-15.8,20.7-21.1c4.8-3.1,9.8-5,14.8-5.9c5-1.1,9.8-1.2,14.1-0.3
		c4.4,0.7,8.1,2.3,11.2,4.9C2078.9,1241,2080.9,1244.2,2081.8,1248.2L2081.8,1248.2z M2052.8,1383.1c2.2,0.9,5.5,0.4,9.9-1.3
		c4.6-1.5,9.4-4.7,14.5-9.5c5.3-4.6,10.3-11.1,15.1-19.4c5-8.3,9.1-18.9,12.2-31.6c-5.9-2.6-11-6.1-15.1-10.5
		c-4.2-4.4-7.5-9.1-9.9-14.1c-2.2-5-3.6-10.2-4.3-15.5c-0.4-5.3-0.1-10,1-14.1c-3.7,1.8-7.3,5.7-10.9,11.8
		c-3.5,5.9-6.8,13.1-9.9,21.4c-2.9,8.1-5.3,16.8-7.2,26c-2,9-3.2,17.4-3.6,25.3c-0.4,8.1-0.1,15,1,20.7
		C2046.9,1378.1,2049.3,1381.7,2052.8,1383.1L2052.8,1383.1z M2107.5,1247.8c-2.6-0.7-6,1.1-10.2,5.3c-3.9,3.9-6.9,9.2-8.9,15.8
		c-1.8,6.6-1.5,13.8,0.7,21.7c2.2,7.9,8.2,15.4,18.1,22.4c0.9-1.5,1.8-4.2,2.6-7.9c1.1-3.7,2-7.9,2.6-12.5c0.7-4.6,1.1-9.4,1.3-14.5
		c0.2-5.3,0.1-10-0.3-14.1c-0.2-4.4-0.8-8-1.6-10.9C2110.9,1250,2109.4,1248.3,2107.5,1247.8L2107.5,1247.8z"/>
	<path id="path5191" class="st2" d="M2205.2,1239.9c-1.1,8.3-2.2,16-3.3,23c-0.9,6.8-1.9,13.6-3,20.4c-1.1,6.8-2.3,13.7-3.6,20.7
		c-1.1,7-2.4,14.8-3.9,23.4c4.6-8.8,8.8-16.8,12.5-24c3.7-7.2,7.5-14.4,11.2-21.4c3.7-7,7.8-14.1,12.2-21.4
		c4.6-7.5,10-15.7,16.1-24.7c5.5-5.9,11-8.9,16.5-8.9s10.3,2.3,14.5,6.9c4.4,4.6,7.7,11.2,9.9,19.7c2.2,8.6,2.7,18.2,1.6,29
		c3.3-5.9,6.4-11.6,9.2-17.1c2.9-5.5,5.7-10.9,8.6-16.1c2.9-5.5,5.8-11.1,8.9-16.8c3.3-5.9,6.8-12.2,10.5-18.8
		c3.7-3.7,8.4-5.3,14.1-4.6c5.9,0.7,11.5,3.4,16.8,8.2c5.3,4.8,9.5,11.6,12.8,20.4c3.5,8.8,4.7,19.3,3.6,31.6
		c-1.5,4.8-3.4,11.6-5.6,20.4c-2.2,8.6-4.5,18-6.9,28.3c-2.4,10.3-4.8,20.7-7.2,31.3c-2.2,10.7-4.1,20.5-5.6,29.3
		c-1.5,8.8-2.5,16-3,21.7c-0.4,5.7-0.1,8.7,1,8.9c3.7,0.7,8.3-1.4,13.8-6.3c5.7-4.6,12.2-11.5,19.4-20.7
		c7.2-9.2,15.1-20.5,23.7-33.9c8.8-13.2,18.1-28,28-44.4c1.8-2.4,3.6-3.3,5.6-2.6c2.2,0.7,2.9,2.4,2,5.3
		c-11.2,19.1-21.6,36.1-31.3,51c-9.4,15.1-18.3,27.7-26.6,37.8s-16.2,17.4-23.7,22c-7.5,4.6-14.7,5.9-21.7,3.9
		c-14.5-3.9-24.3-11.4-29.6-22.4c-5.3-10.7-7.5-24.6-6.6-41.5c1.1-16.7,4.6-36.1,10.5-58.2c5.9-22.2,12.8-46.6,20.7-73.4
		c0.4-1.3-0.2-0.3-2,3c-1.8,3.3-4.3,8.1-7.6,14.5c-3.1,6.4-6.7,13.9-10.9,22.7c-4.2,8.8-8.6,18.1-13.2,28
		c-4.4,9.7-8.9,19.5-13.5,29.6c-4.6,9.9-8.8,19.2-12.5,28c-2.2,5-5.8,8.9-10.9,11.5c-5,2.6-10.2,3.9-15.5,3.9c-5,0-9.3-1.3-12.8-3.9
		c-3.5-2.6-4.9-6.7-4.3-12.2c1.5-5,3.3-11.4,5.3-19.1c2-7.9,3.9-16.1,5.9-24.7c2-8.6,3.8-17.1,5.6-25.7c1.8-8.6,3.4-16.2,4.9-23
		c1.5-6.8,2.7-12.2,3.6-16.1c0.9-4.2,1.3-6,1.3-5.6c-10.7,17.5-21.2,35.9-31.3,54.9c-10.1,19.1-19.2,37.6-27.3,55.6
		c-2.6,6.8-7,11.5-13.2,14.1c-5.9,2.9-12,4.4-18.1,4.6c-5.9,0.2-11.1-0.5-15.5-2.3c-4.4-1.8-6.3-3.7-5.6-5.9
		c0.7-2.6,1.4-6.7,2.3-12.2c0.7-5.7,1.5-13.3,2.6-22.7c1.1-9.4,2.4-20.8,3.9-34.2c1.5-13.4,3.4-29.3,5.6-47.7c0.4-3.1,2-5.6,4.6-7.6
		c2.9-2,6.1-3.4,9.9-4.3c3.9-0.9,8-1.2,12.2-1c4.4,0,8.3,0.4,11.8,1.3c3.7,0.9,6.7,2.2,8.9,3.9
		C2204.3,1235.5,2205.4,1237.5,2205.2,1239.9L2205.2,1239.9z"/>
	<path id="path5193" class="st2" d="M2553.9,1305.7c0.9-0.9,1.9-1.4,3-1.6c1.3-0.4,2.4-0.4,3.3,0c1.1,0.2,1.8,0.9,2,2
		c0.2,0.9-0.1,2.2-1,3.9c-7.9,13.6-15.9,25.6-24,35.9c-8.1,10.1-16.1,18.4-24,25c-7.9,6.6-15.5,11.3-22.7,14.1
		c-7.2,2.9-13.8,3.7-19.7,2.6c-11.2-2-20.3-7.1-27.3-15.5c-7-8.3-12.1-18.1-15.1-29.3c-2.9-11.4-3.7-23.2-2.6-35.5
		c1.1-12.5,4.1-23.7,8.9-33.6c5-10.1,12.1-18,21.1-23.7c9-5.9,19.8-7.9,32.6-5.9c8.1,1.3,14.4,4.4,18.8,9.2c4.4,4.6,6.5,10,6.3,16.1
		c-0.2,6.1-3,12.4-8.2,18.8c-5.3,6.4-13.5,11.6-24.7,15.8c-1.3,4.2-2.6,10.1-3.9,17.8c-1.1,7.7-1.9,15.5-2.3,23.4
		c-0.2,7.7,0.2,14.6,1.3,20.7c1.3,6.1,3.7,9.9,7.2,11.2c1.5,0.4,4.6-0.4,9.2-2.6c4.6-2.2,10.2-6.1,16.8-11.8
		c6.6-5.7,13.8-13.2,21.7-22.4C2538.1,1330.9,2546,1319.3,2553.9,1305.7L2553.9,1305.7z M2480.9,1293.2c7-3.1,12.2-6.7,15.5-10.9
		c3.3-4.4,5.3-8.3,5.9-11.8c0.7-3.7,0.2-6.7-1.3-8.9c-1.3-2.4-3.3-3.3-5.9-2.6c-2.2,0.7-4.1,2.4-5.6,5.3c-1.5,2.6-2.9,5.7-3.9,9.2
		c-1.1,3.5-2.1,7.1-3,10.9C2481.9,1287.9,2481.3,1290.8,2480.9,1293.2L2480.9,1293.2z"/>
</g>
</svg>
