<svg xmlns="http://www.w3.org/2000/svg" viewBox="0 0 122.87 99.96"><g id="Layer_2" data-name="Layer 2"><g id="Layer_1-2" data-name="Layer 1"><path d="M120.8,31H84.93L73.56,1.34a2,2,0,0,0-3.84,1.43h0L80.57,32H42.12L53,2.76a2,2,0,0,0-3.84-1.43L37.75,32H2A2,2,0,0,0,.12,34.7L23.43,98.62A2,2,0,0,0,25.35,100h71.8a2.05,2.05,0,0,0,1.94-1.36l23.66-64.86a2.07,2.07,0,0,0-2-2.78ZM95.92,96H26.77L4.89,36H36.24l-3.66,9.95a2,2,0,1,0,3.83,1.44L40.61,37H82.09l4.19,10.39a2.05,2.05,0,0,0,3.84-1.44L86.45,36h31.36Z"/></g></g></svg>