<svg id="svg" width="403.03" height="397.14" version="1.1" viewBox="0 0 403.03 397.14" xmlns="http://www.w3.org/2000/svg">
 <g id="svgg" transform="rotate(-90 200.63 198.04)" fill="#00a400">
  <path d="m189.43 0.666c-8.687 0.475-14.033 1.12-26.091 3.146-44.066 7.407-90.819 35.68-118.68 71.766-0.548 0.711-2.092 2.705-3.43 4.432-28.016 36.159-43.471 89.833-38.914 135.14 0.658 6.536 1.947 16.638 2.449 19.189 4.948 25.139 15.338 52.337 26.187 68.547 0.293 0.439 2.265 3.4 4.38 6.581 45.119 67.823 127.47 100.85 207.73 83.319 24.768-5.41 51.323-17.072 70.77-31.08 70.734-50.951 100.55-135.81 76.781-218.54-13.624-47.422-47.08-90.507-89.326-115.04-2.193-1.274-4.975-2.89-6.181-3.592-28.367-16.501-69.714-25.842-105.68-23.876m15.575 50.198c10.432 11.077 20.251 26.028 23.298 35.477 1.075 3.333 1.091 3.338 3.677 1.142 9.967-8.461 25.79-16.101 42.846-20.688l1.847-0.496 1.035 4.039c3.661 14.277 5.132 30.949 3.63 41.128-0.323 2.193-0.701 4.75-0.839 5.683-0.293 1.98-0.378 1.956 3.568 0.997 9.247-2.249 45.01 1.03 48.419 4.438 1.218 1.218-8.73 26.348-13.517 34.146-2.714 4.422-6.396 9.508-8.602 11.883-0.851 0.916-0.58 1.185 2.084 2.072 10.757 3.58 27.719 15.061 38.295 25.921l2.393 2.457-4.559 4.405c-2.507 2.423-5.308 4.967-6.224 5.653s-3.082 2.34-4.814 3.676c-7.762 5.988-15.564 10.57-23.32 13.699l-4.62 1.864 2.151 2.57c7.795 9.311 15.49 24.93 19.63 39.845 1.476 5.318 1.905 4.607-3.637 6.024-13.521 3.456-32.376 4.793-42.699 3.028-5.151-0.881-4.841-0.952-4.548 1.03 0.138 0.933 0.516 3.49 0.839 5.683 1.127 7.639 0.673 17.519-1.403 30.509-0.845 5.285-3.084 14.357-3.543 14.357-0.151 0-2.416-0.614-5.034-1.363-15.022-4.302-28.973-11.162-38.8-19.08-3.336-2.688-3.139-2.751-4.656 1.5-3.615 10.131-13.396 24.79-23.486 35.197-4.862 5.014-4.031 5.176-10.487-2.047-11.076-12.392-19.111-25.089-22.427-35.444-0.602-1.878-0.405-1.92-3.747 0.798-9.631 7.832-24.878 15.273-39.506 19.279-5.136 1.406-4.609 1.786-6.133-4.423-3.45-14.057-4.547-31.484-2.683-42.629 0.759-4.54 1.089-4.225-3.649-3.482-11.743 1.84-28.958 0.724-42.52-2.757-6.274-1.611-5.758-0.867-4.321-6.232 3.863-14.418 11.147-29.33 19.121-39.148 1.395-1.716 2.474-3.175 2.399-3.242s-1.986-0.864-4.248-1.771c-12.211-4.899-28.901-16.453-37.292-25.818-1.883-2.102-1.895-2.076 3.373-6.887 12.526-11.437 25.811-20.024 36.137-23.355 2.55-0.823 2.57-0.487-0.231-3.933-8.297-10.209-17.299-29.3-20.188-42.815l-0.272-1.272 2.869-0.854c13.156-3.918 36.595-5.633 46.156-3.376 3.585 0.846 3.419 1.06 2.664-3.441-0.9-5.369-1.184-15.134-0.624-21.491 0.886-10.052 1.888-15.812 4.449-25.586l0.382-1.458 1.889 0.518c4.106 1.126 11.426 3.46 12.412 3.958 0.573 0.29 1.76 0.754 2.637 1.031 7.2 2.276 20.233 9.549 27.064 15.102 3.093 2.514 3.816 2.693 3.837 0.948 0.01-0.759 3.068-7.765 4.894-11.211 4.586-8.653 11.83-18.416 20.326-27.392l3.192-3.371 1.251 1.115c0.688 0.613 2.427 2.363 3.865 3.89m-6.995 24.211c-16.378 18.526-16.543 37.058-0.621 69.794 2.835 5.828 2.64 5.791 5.073 0.963 16.261-32.274 16.293-50.996 0.123-70.426-2.44-2.932-2.286-2.921-4.575-0.331m-61.222 14.767c0 0.061-0.356 2.618-0.792 5.683-3.328 23.433 5.478 38.277 34.144 57.553 6.451 4.338 6.186 4.539 5.31-4.011-3.39-33.111-9.206-45.014-26.698-54.645-4.217-2.322-11.964-5.288-11.964-4.58m120.64 1.824c-22.551 9.784-30.593 24.583-32.703 60.178-0.322 5.428-0.653 5.344 5.297 1.346 15.574-10.463 26.285-20.92 30.895-30.159 3.75-7.517 5.004-18.933 3.197-29.113-0.866-4.88-0.732-4.835-6.686-2.252m-157.73 42.57c-4.231 0.501-8.774 1.482-8.774 1.895 0 0.749 2.546 6.993 4.121 10.109 9.507 18.804 24.608 26.027 58.99 28.218 4.153 0.265 4.138 0.298 1.626-3.526-18.802-28.615-34.923-39.186-55.963-36.696m188.83 0.149c-15.509 2.211-29.14 13.625-44.176 36.988-2.251 3.498-2.52 3.327 4.51 2.868 28.08-1.831 43.917-8.352 52.697-21.699 3.204-4.869 7.907-14.697 7.907-16.522 0-1.168-15.645-2.389-20.938-1.635m-93.519 38.014c-24.293 5.569-29.723 37.111-8.562 49.73 17.805 10.616 40.675-2.524 40.597-23.325-0.062-16.565-16.361-29.999-32.035-26.405m-95.912 12.442c-7.604 1.684-15.016 5.703-24.427 13.246-1.114 0.892 1.277 3.25 7.677 7.569 9.709 6.552 23.428 9.726 32.104 7.428 0.987-0.262 3.499-0.874 5.583-1.361 7.838-1.831 31.059-11.367 31.099-12.771 4e-3 -0.138-2.37-1.423-5.277-2.855-19.665-9.693-36.031-13.633-46.759-11.256m187.6-0.169c-7.906 1.163-21.94 6.188-33.762 12.09-4.562 2.278-4.613 2.014 0.919 4.767 31.887 15.869 49.187 16.006 68.872 0.543 4.158-3.266 4.091-2.896 0.997-5.482-11.741-9.813-24.158-13.81-37.026-11.918m-139.94 39.302c-33.143 3.548-47.211 12.58-55.051 35.343-1.117 3.243-1.531 2.865 4.004 3.667 22.509 3.26 35.462-3.169 53.253-26.431 2.874-3.757 8.561-12.266 8.561-12.807 0-0.546-4.406-0.453-10.767 0.228m95.998-0.397c-0.979 0.978 14.011 20.468 20.54 26.706 9.672 9.24 16.475 12.377 29.465 13.584 3.371 0.313 16.059-1.125 16.522-1.873 0.258-0.418-2.199-6.771-4.017-10.383-4.607-9.156-11.51-16.372-18.927-19.786-5.684-2.616-6.372-2.86-13.161-4.665-7.836-2.083-29.384-4.621-30.422-3.583m-70.358 19.7c-30.465 20.107-39.818 35.297-36.384 59.088 0.988 6.847 0.44 6.29 4.652 4.713 23.582-8.829 31.586-22.496 34.863-59.528 0.589-6.662 0.556-6.707-3.131-4.273m52.294 2.245c2.297 37.1 11.24 52.823 35.038 61.598 3.812 1.405 3.573 1.597 4.446-3.556 4.052-23.904-5.468-39.902-35.6-59.829-4.567-3.02-4.193-3.192-3.884 1.787m-27.619 8.212c-8.515 17.388-12.895 33.548-11.604 42.812 1.219 8.747 6.507 19.682 12.904 26.684l1.821 1.994 1.438-1.595c16.941-18.789 17.279-38.643 1.202-70.699-2.868-5.719-2.544-5.765-5.761 0.804" fill="#00a400" fill-rule="evenodd"/>
 </g>
</svg>
